<?xml version="1.0"?>
<svg version="1.1" xmlns="http://www.w3.org/2000/svg" width="250" height="37" style=""><path fill="#d6c018" d="M17.55,24.195l0.34,1.785s0.765,0.425,1.87,0.425c1.241,0,2.601-0.612,2.601-1.819c0-2.618-6.137-1.53-6.137-5.593c0-2.38,1.904-3.383,4.029-3.383c1.615,0,3.587,0.68,3.587,0.68l-0.085,2.89l-1.105,0l-0.578-1.819s-0.867-0.306-1.802-0.306c-1.53,0-2.261,0.799-2.261,1.649c0,2.584,6.12,1.598,6.12,5.423c0,2.55-2.057,3.723-4.437,3.723c-1.785,0-3.502-0.68-3.502-0.68l0-2.975l1.36,0z M32.8602,19.656l0.357,1.275l-2.822,1.36l0,4.029l3.485,0l0.34-1.955l1.19,0l0,3.315l-8.245,0l0-1.02l1.445-0.34l0-3.281l-1.428,0.68l-0.357-1.275l1.785-0.85l0-4.454l-1.445-0.34l0-0.935l4.675-0.085l0,1.02l-1.445,0.34l0,3.706z M43.3084,15.61c3.315,0,5.27,2.295,5.27,5.95c0,3.74-2.295,6.29-5.61,6.29s-5.185-2.125-5.185-6.035c0-3.74,2.125-6.205,5.525-6.205z M43.2234,17.055c-2.21,0-3.485,1.445-3.485,4.675c0,3.06,1.105,4.675,3.315,4.675s3.57-1.53,3.57-4.76c0-3.06-1.19-4.59-3.4-4.59z M54.4196,26.32l1.615,0.34l0,1.02l-4.59,0l0-1.02l1.445-0.34l0-9.18l-1.445-0.34l0-0.935l3.57-0.085l5.61,9.503l0-8.143l-1.445-0.34l0-0.935l4.42-0.085l0,1.02l-1.445,0.34l0,10.54l-2.125,0l-5.61-9.367l0,8.007z M69.4408,20.795l3.91,0l0,1.36l-3.91,0l0,4.165l3.91,0l0.34-1.7l1.105,0l0,3.06l-8.585,0l0-1.02l1.445-0.34l0-9.18l-1.445-0.34l0-0.935l3.23-0.085l5.185,0l0,2.89l-1.105,0l-0.425-1.53l-3.655,0l0,3.655z M86.162,19.35l-0.459-1.955s-0.901-0.34-2.176-0.34c-2.295,0-3.57,1.7-3.57,4.845c0,3.06,1.53,4.42,3.655,4.42c1.785,0,3.4-1.36,3.4-1.36l0.68,1.105s-1.7,1.785-4.25,1.785c-3.4,0-5.44-2.04-5.44-5.865c0-3.91,2.21-6.375,5.695-6.375c1.87,0,3.825,0.85,3.825,0.85l-0.085,2.89l-1.275,0z M99.2282,16.97l-6.8,9.35l5.27,0l0.34-1.7l1.105,0l0,3.06l-9.01,0l0-1.19l6.8-9.35l-4.76,0l-0.425,1.7l-1.105,0l0-3.06l8.585,0l0,1.19z M101.8394,27.68l0-1.02l1.445-0.34l0-9.18l-1.445-0.34l0-0.935l4.845-0.085l0,1.02l-1.615,0.34l0,3.74l1.564,0l2.941-5.015l2.805-0.085l0,1.02l-1.683,0.34l-2.584,4.301l3.502,4.879l1.445,0.34l0,1.02l-4.845,0l0-1.02l1.445-0.34l-2.924-4.08l-1.666,0l0,4.08l1.615,0.34l0,1.02l-4.845,0z M120.5156,15.61c3.315,0,5.27,2.295,5.27,5.95c0,3.74-2.295,6.29-5.61,6.29s-5.185-2.125-5.185-6.035c0-3.74,2.125-6.205,5.525-6.205z M120.4306,17.055c-2.21,0-3.485,1.445-3.485,4.675c0,3.06,1.105,4.675,3.315,4.675s3.57-1.53,3.57-4.76c0-3.06-1.19-4.59-3.4-4.59z M133.4118,22.325l0,1.445l-4.42,0l0-1.445l4.42,0z M140.936,16.8l-1.445,0.34l0,9.775c0,2.04-1.19,3.315-3.23,3.315c-0.425,0-1.088-0.085-1.088-0.085l0.153-1.275l0.85,0c1.105,0,1.53-0.595,1.53-1.615l0-10.115l-1.445-0.34l0-0.935l4.675-0.085l0,1.02z M144.1422,21.305l-0.085-2.125s1.87-0.68,3.315-0.68c1.972,0,3.145,0.68,3.145,2.635l0,5.185l1.36,0.34l0,0.935l-2.635,0.085l-0.357-1.19c-0.578,0.578-1.598,1.36-2.788,1.36c-1.615,0-2.55-0.935-2.55-2.55c0-1.955,1.53-2.635,3.91-2.635l1.36,0l0-1.36c0-1.02-0.595-1.53-1.615-1.53s-1.717,0.255-1.717,0.255l-0.238,1.275l-1.105,0z M148.8172,23.77l-1.19,0c-1.7,0-2.346,0.425-2.346,1.445c0,0.765,0.476,1.275,1.241,1.275c1.275,0,2.295-1.36,2.295-1.36l0-1.36z M158.5684,22.07l1.275-2.142l-0.765-0.238l0-0.935l3.74-0.085l0,1.02l-1.207,0.204l-0.017,0l-1.751,2.601l2.193,3.825l0.017,0l1.275,0.425l0,0.935l-2.295,0l-2.431-4.335l-1.479,0l0,2.975l1.105,0.425l0,0.935l-4.25,0l0-0.935l1.445-0.425l0-10.37l-1.445-0.34l0-0.935l3.145-0.085l0,7.48l1.445,0z M180.2808,26.66l0,0.935l-2.805,0.085l-0.17-1.19c-0.408,0.357-1.751,1.36-3.145,1.36c-1.87,0-2.72-1.173-2.72-3.043l0-4.777l-1.445-0.34l0-0.935l3.145-0.085l0,5.967c0,1.19,0.425,1.768,1.53,1.768c1.445,0,2.465-1.343,2.465-1.343l0-5.032l-1.445-0.34l0-0.935l3.145-0.085l0,7.65z M198.1682,26.32l0-8.5l-0.51,1.275l-2.635,5.355l-1.36,0.085l-2.635-5.525l-0.425-1.19l0,8.5l1.615,0.34l0,1.02l-4.59,0l0-1.02l1.445-0.34l0-9.18l-1.445-0.34l0-0.935l3.825-0.085l3.077,6.8l3.213-6.715l3.57-0.085l0,1.02l-1.445,0.34l0,9.18l1.445,0.34l0,1.02l-4.76,0l0-1.02z M204.5194,21.305l-0.085-2.125s1.87-0.68,3.315-0.68c1.972,0,3.145,0.68,3.145,2.635l0,5.185l1.36,0.34l0,0.935l-2.635,0.085l-0.357-1.19c-0.578,0.578-1.598,1.36-2.788,1.36c-1.615,0-2.55-0.935-2.55-2.55c0-1.955,1.53-2.635,3.91-2.635l1.36,0l0-1.36c0-1.02-0.595-1.53-1.615-1.53s-1.717,0.255-1.717,0.255l-0.238,1.275l-1.105,0z M209.1944,23.77l-1.19,0c-1.7,0-2.346,0.425-2.346,1.445c0,0.765,0.476,1.275,1.241,1.275c1.275,0,2.295-1.36,2.295-1.36l0-1.36z M217.4156,18.67l0.153,1.207c0.391-0.374,1.683-1.377,3.077-1.377c1.224,0,1.972,0.578,2.363,1.462c0.221-0.221,1.598-1.462,3.162-1.462c1.87,0,2.635,1.19,2.635,3.06l0,4.76l1.275,0.425l0,0.935l-4.08,0l0-0.935l1.105-0.425l0-4.59c0-1.19-0.34-1.785-1.445-1.785c-1.445,0-2.38,1.36-2.38,1.36l0,5.015l1.105,0.425l0,0.935l-3.91,0l0-0.935l1.105-0.425l0-4.59c0-1.19-0.34-1.785-1.445-1.785c-1.445,0-2.38,1.36-2.38,1.36l0,5.015l1.105,0.425l0,0.935l-4.25,0l0-0.935l1.445-0.425l0-6.29l-1.445-0.34l0-0.935z M234.7318,19.86l2.04,5.95l1.87-5.865l-1.19-0.255l0-0.935l4.029-0.085l0,1.02l-1.105,0.17l-2.414,6.732c-0.901,2.363-1.785,5.168-4.59,5.168c-0.425,0-1.088-0.085-1.088-0.085l0.153-1.19l0.85,0c1.19,0,1.955-1.122,2.703-2.771l-3.043-7.769l-1.02-0.255l0-0.935l3.995-0.085l0,1.02z"/><path fill="#" d=""/></svg>
